<svg width="200" height="50" viewBox="0 0 200 50" fill="none" xmlns="http://www.w3.org/2000/svg">
  <path d="M26.5 38.5C26.5 38.5 33.5 38.5 35 32.5C36.5 26.5 31 23 31 23C31 23 35.5 22 36.5 16.5C37.5 11 32 8.5 32 8.5H19V38.5H26.5Z" stroke="white" stroke-width="2"/>
  <path d="M19 23H26.5" stroke="white" stroke-width="2"/>
  <path d="M38 38.5L44.5 8.5H51.5L58 38.5" stroke="white" stroke-width="2"/>
  <path d="M39.5 31H56.5" stroke="white" stroke-width="2"/>
  <path d="M68 8.5V38.5" stroke="white" stroke-width="2"/>
  <path d="M68 23.5H76" stroke="white" stroke-width="2"/>
  <path d="M68 8.5H76" stroke="white" stroke-width="2"/>
  <path d="M85 8.5V38.5" stroke="white" stroke-width="2"/>
  <path d="M85 8.5H93C93 8.5 99 9 99 15.5C99 22 93 23.5 93 23.5H85" stroke="white" stroke-width="2"/>
  <path d="M107 8.5V38.5" stroke="white" stroke-width="2"/>
  <path d="M117 8.5V38.5H127C127 38.5 135 38 135 23.5C135 9 127 8.5 127 8.5H117Z" stroke="white" stroke-width="2"/>
  <path d="M141 38.5L147.5 8.5H154.5L161 38.5" stroke="white" stroke-width="2"/>
  <path d="M142.5 31H159.5" stroke="white" stroke-width="2"/>
</svg>
